<svg width="16" height="15" viewBox="0 0 16 15" xmlns="http://www.w3.org/2000/svg">
  <path d="M6.15382 7.10528C8.19302 7.10528 9.84611 5.51471 9.84611 3.55264C9.84611 1.59057 8.19302 0 6.15382 0C4.11462 0 2.46153 1.59057 2.46153 3.55264C2.46153 5.51471 4.11462 7.10528 6.15382 7.10528Z" />
  <path d="M16 7.10524C16.0018 6.61035 15.8654 6.12407 15.6051 5.69722C15.3448 5.27037 14.9702 4.91862 14.5203 4.67872C14.0704 4.43883 13.5618 4.3196 13.0476 4.33348C12.5335 4.34737 12.0326 4.49387 11.5975 4.75767C11.1623 5.02147 10.8087 5.39289 10.5737 5.83312C10.3387 6.27334 10.2309 6.76622 10.2615 7.26024C10.2922 7.75426 10.4602 8.2313 10.748 8.64149C11.0357 9.05169 11.4327 9.37999 11.8974 9.59209V13.8158L13.1282 15L15.1795 13.0263L13.9487 11.8421L15.1795 10.6579L14.162 9.67894C14.7024 9.47831 15.1671 9.12516 15.4951 8.66585C15.8231 8.20654 15.9991 7.66253 16 7.10524ZM13.1282 7.10524C12.9659 7.10524 12.8073 7.05894 12.6723 6.97219C12.5374 6.88545 12.4323 6.76215 12.3701 6.61789C12.308 6.47363 12.2918 6.31489 12.3235 6.16175C12.3551 6.00861 12.4333 5.86794 12.548 5.75752C12.6628 5.64711 12.809 5.57192 12.9681 5.54146C13.1273 5.511 13.2923 5.52663 13.4422 5.58639C13.5921 5.64614 13.7203 5.74733 13.8104 5.87716C13.9006 6.00699 13.9487 6.15963 13.9487 6.31577C13.9487 6.52515 13.8623 6.72596 13.7084 6.87401C13.5545 7.02207 13.3458 7.10524 13.1282 7.10524Z" />
  <path d="M9.38663 8.70002C8.75654 8.42972 8.07445 8.28986 7.38458 8.28949H4.92306C3.61738 8.28949 2.36518 8.78855 1.44193 9.67689C0.518678 10.5652 0 11.7701 0 13.0263V14.6053H10.6666V10.2553C10.1133 9.84627 9.67357 9.31201 9.38663 8.70002Z" />
</svg>
